<?xml version="1.0" encoding="UTF-8" standalone="no"?>
<!-- Created with Inkscape (http://www.inkscape.org/) -->

<svg
   width="210mm"
   height="297mm"
   viewBox="0 0 210 297"
   version="1.1"
   id="svg1"
   xml:space="preserve"
   xmlns:inkscape="http://www.inkscape.org/namespaces/inkscape"
   xmlns:sodipodi="http://sodipodi.sourceforge.net/DTD/sodipodi-0.dtd"
   xmlns="http://www.w3.org/2000/svg"
   xmlns:svg="http://www.w3.org/2000/svg"><sodipodi:namedview
     id="namedview1"
     pagecolor="#ffffff"
     bordercolor="#999999"
     borderopacity="1"
     inkscape:showpageshadow="2"
     inkscape:pageopacity="0"
     inkscape:pagecheckerboard="0"
     inkscape:deskcolor="#d1d1d1"
     inkscape:document-units="mm"
     inkscape:zoom="1.1112572"
     inkscape:cx="456.24002"
     inkscape:cy="666.81233"
     inkscape:window-width="1064"
     inkscape:window-height="1035"
     inkscape:window-x="7"
     inkscape:window-y="46"
     inkscape:window-maximized="0"
     inkscape:current-layer="layer1"><inkscape:page
       x="0"
       y="0"
       width="210"
       height="297"
       id="page2"
       margin="0"
       bleed="0" /></sodipodi:namedview><defs
     id="defs1" /><g
     inkscape:label="Layer 1"
     inkscape:groupmode="layer"
     id="layer1"><path
       style="fill:#000000"
       d="m 81.877944,219.02646 c -0.0253,-0.006 -0.14951,-0.0268 -0.27602,-0.0464 -0.71502,-0.11105 -1.431967,-0.47981 -1.927443,-0.99136 -0.66771,-0.68937 -1.09177,-1.64426 -1.297653,-2.92202 -0.09315,-0.57808 -0.102118,-2.00447 -0.01665,-2.64673 0.262873,-1.97535 0.964315,-3.66122 1.891753,-4.54671 0.162103,-0.15477 0.373563,-0.32641 0.469923,-0.38143 0.76963,-0.43943 1.54707,-0.32161 2.2944,0.34772 0.31063,0.27821 0.54153,0.55191 0.85492,1.01339 0.24346,0.3585 0.8898,1.56036 0.88954,1.65408 -2e-4,0.0716 -0.16684,0.29848 -0.26515,0.36107 -0.37339,0.23776 -0.74875,-0.23003 -1.45241,-1.81002 -0.37086,-0.83274 -0.63539,-1.27367 -0.76411,-1.27367 -0.0438,0 -0.12414,0.10692 -0.16402,0.21816 -0.0362,0.10096 -0.0612,0.11895 -0.28797,0.20726 -0.70029,0.27271 -1.27387,0.77082 -1.714588,1.48899 -0.288071,0.46943 -0.49599,0.98071 -0.657334,1.61641 -0.171905,0.67731 -0.199345,0.93658 -0.198431,1.87487 7.34e-4,0.75377 0.0093,0.90616 0.06969,1.24405 0.225844,1.26305 0.660472,2.17838 1.317293,2.77422 0.37946,0.34423 0.75829,0.52104 1.25726,0.58679 0.55531,0.0732 1.26244,-0.11579 1.94417,-0.51953 0.15786,-0.0935 0.49403,-0.27196 0.74705,-0.39659 1.00459,-0.49487 1.79979,-1.05928 2.75604,-1.95615 0.92382,-0.86645 1.66527,-1.71935 3.27022,-3.76177 0.83105,-1.05758 1.38381,-1.73846 1.77634,-2.18809 0.48342,-0.55374 0.43757,-0.47446 0.38568,-0.66686 -0.13992,-0.51882 -0.47693,-0.90247 -1.47555,-1.67973 -0.84809,-0.66011 -1.19111,-1.04726 -1.36222,-1.53747 -0.0598,-0.17139 -0.0685,-0.26898 -0.079,-0.88861 -0.007,-0.39608 0.002,-0.79629 0.0208,-0.92859 0.21648,-1.54729 1.60905,-2.90172 3.29503,-3.20478 0.42241,-0.0759 1.13282,-0.0484 1.50278,0.0582 0.85742,0.24711 1.57811,0.82295 1.98066,1.58256 0.44811,0.84559 1.44327,0.0778 3.14228,-2.42436 0.494586,-0.72839 0.786356,-1.18332 1.703946,-2.65684 0.79218,-1.27213 1.22102,-1.92279 1.35296,-2.05278 0.0413,-0.0407 0.16007,-0.14463 0.26385,-0.2309 0.20681,-0.1719 0.34322,-0.36746 0.34808,-0.49901 0.002,-0.0466 -0.008,-0.16747 -0.0206,-0.26871 -0.0304,-0.23638 0.005,-0.29078 0.28113,-0.42999 0.2462,-0.12418 0.76958,-0.2985 0.82953,-0.27628 0.0229,0.008 0.0826,0.099 0.13261,0.20111 0.0821,0.16773 0.091,0.21465 0.091,0.48549 4e-5,0.51317 -0.16383,1.01293 -0.61556,1.87728 -0.47133,0.90183 -1.004,1.72878 -2.55662,3.96911 -1.666706,2.40493 -2.218436,3.26652 -2.778786,4.33936 -0.50772,0.97207 -0.76,1.66836 -0.82249,2.27008 -0.0831,0.80058 0.21675,1.3574 0.88983,1.65215 0.71264,0.31208 1.820146,0.35528 3.384116,0.132 1.29027,-0.1842 2.96293,-0.57452 4.81973,-1.12471 0.41913,-0.12419 0.94146,-0.27841 1.16075,-0.3427 0.56641,-0.16608 1.02996,-0.34905 1.59638,-0.63011 1.73002,-0.85845 3.28132,-2.16549 4.0737,-3.43228 l 0.14482,-0.23152 -0.26092,-0.2648 c -0.73335,-0.74427 -1.27206,-1.88448 -1.47542,-3.12279 -0.0683,-0.41576 -0.0928,-1.2622 -0.0485,-1.67577 0.0733,-0.68469 0.25381,-1.29402 0.54341,-1.83423 0.24688,-0.46051 0.41589,-0.66407 0.79764,-0.96067 0.71245,-0.55354 1.50895,-1.00866 2.07161,-1.18372 1.60518,-0.49942 2.61526,0.43075 2.75318,2.53534 0.13214,2.01653 -0.62171,4.53726 -1.82173,6.09144 -0.12138,0.15721 -0.24383,0.30413 -0.27211,0.32649 -0.0283,0.0224 -0.0514,0.0522 -0.0514,0.0663 0,0.0348 0.50605,0.27801 0.82867,0.39835 0.79395,0.29614 1.44674,0.34403 2.02805,0.14878 0.32389,-0.10879 0.5321,-0.24121 0.84218,-0.53565 0.6661,-0.63248 1.01366,-1.34322 1.86127,-3.8062 0.55015,-1.59861 0.75625,-2.11995 1.109,-2.80519 0.53735,-1.04383 1.11478,-1.70584 1.85684,-2.12884 0.41577,-0.23699 0.96816,-0.3546 1.54879,-0.32975 0.86461,0.037 1.33253,0.46622 1.45984,1.3391 0.15332,1.05119 -0.40083,2.8376 -1.41065,4.54747 -1.21386,2.05536 -2.73126,3.55711 -4.0055,3.96419 l -0.27602,0.0882 -0.18198,0.24679 c -0.30968,0.41996 -1.88806,2.70585 -2.25654,3.26805 -1.85912,2.83642 -3.00103,5.09173 -3.57161,7.05399 -0.0162,0.0556 0.0385,0.0989 0.43494,0.34416 3.38698,2.09548 5.88656,2.95905 8.0421,2.77842 0.86611,-0.0726 1.4115,-0.18865 3.16087,-0.67272 1.50787,-0.41724 2.28859,-0.61136 3.06691,-0.76256 0.60103,-0.11676 1.54811,-0.26264 1.61725,-0.24912 0.0765,0.015 -0.79916,0.68723 -1.4179,1.08856 -3.26613,2.11848 -6.81407,2.40159 -10.66042,0.85063 -1.24673,-0.50271 -2.07084,-0.93648 -4.39547,-2.31351 -0.50813,-0.301 -0.96008,-0.54988 -0.99855,-0.54988 -0.0855,0 -0.7458,0.54937 -1.90233,1.58287 -0.51447,0.45974 -1.05961,0.94204 -1.21143,1.07177 -1.4504,1.23943 -2.52814,1.90322 -3.48624,2.14721 -0.30646,0.078 -0.86592,0.0932 -1.12946,0.0306 -0.71904,-0.17083 -1.33467,-0.77698 -1.77842,-1.75104 -0.2113,-0.46382 -0.2256,-0.55079 -0.20471,-1.24494 0.0196,-0.6527 0.0716,-1.00021 0.21975,-1.46926 0.47431,-1.50184 1.7364,-2.51343 3.52686,-2.82685 1.52819,-0.26751 3.43409,-0.003 4.95031,0.68576 0.17561,0.0798 0.32146,0.14173 0.32412,0.13755 0.003,-0.004 0.099,-0.1742 0.21406,-0.37784 0.40013,-0.70804 0.75957,-1.24251 1.85257,-2.75468 1.62199,-2.24402 2.20057,-3.21845 2.59413,-4.36899 0.10427,-0.30482 0.26229,-0.9699 0.26229,-1.10392 0,-0.05 -0.0563,-0.0775 -0.34246,-0.16742 -0.18836,-0.0592 -0.51613,-0.14303 -0.7284,-0.18627 -0.33465,-0.0682 -0.46131,-0.0789 -0.9533,-0.0804 -0.65074,-0.002 -0.88942,0.0336 -1.49555,0.22381 -0.65594,0.20579 -1.43746,0.62811 -2.22755,1.20373 -0.17044,0.12417 -0.73083,0.55306 -1.2453,0.95307 -1.00333,0.78011 -0.99276,0.77364 -1.89641,1.16073 -3.43135,1.46989 -7.51557,2.3341 -10.861936,2.29835 -0.71435,-0.008 -0.84044,0.0141 -1.00541,0.17345 -0.0978,0.0945 -0.10347,0.11056 -0.0898,0.25652 0.033,0.35281 0.30488,3.07321 0.40491,4.05191 0.0592,0.57895 0.10759,1.10828 0.10759,1.17629 0,0.30775 0.23925,0.65946 0.64966,0.95506 0.456006,0.32844 0.920166,0.55307 2.171616,1.05095 1.06817,0.42496 1.41106,0.61318 1.41106,0.77456 0,0.12849 -0.29469,0.26405 -0.80212,0.36898 -0.29091,0.0602 -0.3389,0.0624 -0.60793,0.029 -1.3569,-0.16882 -2.470736,-0.59998 -3.298766,-1.27694 -0.8732,-0.71389 -1.44592,-1.80843 -1.6991,-3.24719 -0.0855,-0.48611 -0.14403,-1.01395 -0.21768,-1.96447 -0.0347,-0.44801 -0.0837,-0.95763 -0.10882,-1.1325 -0.12163,-0.84605 -0.3386,-1.27356 -0.74392,-1.4658 -0.1571,-0.0745 -0.20421,-0.0822 -0.49563,-0.0811 -0.23881,8.7e-4 -0.38472,0.0184 -0.56468,0.0679 -0.30571,0.084 -0.39559,0.15737 -1.17478,0.9587 -0.76033,0.78194 -1.11353,1.17344 -2.41293,2.67459 -0.59218,0.68412 -1.26808,1.45721 -1.50201,1.71797 -1.99365,2.22238 -3.6316,3.58533 -5.38649,4.48212 -0.4624,0.23629 -0.79644,0.30155 -1.62545,0.31756 -0.31206,0.006 -0.58808,0.006 -0.61338,2.4e-4 z m 26.866146,-1.91769 c 1.33164,-0.51059 2.8881,-1.70285 3.66574,-2.80799 0.1875,-0.26647 0.41325,-0.68861 0.41325,-0.77277 0,-0.0564 -0.29628,-0.3319 -0.509,-0.47325 -0.21049,-0.13986 -0.60945,-0.31104 -0.90178,-0.38691 -0.21871,-0.0568 -0.3397,-0.0679 -0.75139,-0.0689 -0.55775,-0.001 -0.75427,0.0282 -1.27895,0.19306 -1.20642,0.37907 -2.26771,1.20571 -2.70944,2.11037 -0.5028,1.02976 -0.0396,1.87653 1.25667,2.29723 0.30533,0.0991 0.32555,0.0968 0.8149,-0.0908 z m -12.271806,-9.55349 c 0.14885,-0.10652 0.26433,-0.28733 0.47277,-0.74027 0.20113,-0.43707 0.20609,-0.45369 0.17513,-0.58712 -0.0175,-0.0755 -0.0528,-0.1856 -0.0783,-0.24461 -0.16753,-0.38724 -0.36486,-0.26752 -0.87203,0.52906 -0.16017,0.25159 -0.35615,0.54057 -0.4355,0.64218 l -0.14427,0.18474 0.0984,0.0725 c 0.0541,0.0399 0.17417,0.10728 0.26682,0.14983 0.19584,0.09 0.38573,0.0876 0.51699,-0.006 z m -2.6268,-0.70178 c 0.86247,-0.50599 1.70002,-1.5122 2.04524,-2.4571 0.16577,-0.45374 0.20217,-0.64844 0.20004,-1.06992 -0.002,-0.33465 -0.0127,-0.41639 -0.0838,-0.62435 -0.26595,-0.77724 -0.97784,-1.24581 -2.13316,-1.40406 -0.18883,-0.0259 -0.26944,-0.0214 -0.52758,0.0294 -0.69695,0.13717 -1.14948,0.36312 -1.59402,0.7959 -0.23615,0.22991 -0.32017,0.33665 -0.4356,0.55345 -0.23639,0.44398 -0.28423,0.65215 -0.282,1.22722 0.002,0.44226 0.01,0.51408 0.0847,0.75531 0.32851,1.05805 1.13145,1.87063 2.21362,2.24023 0.13495,0.0461 0.25522,0.0841 0.26727,0.0844 0.0121,3.2e-4 0.12246,-0.0584 0.24535,-0.1305 z m 29.221086,-6.32646 c 0.5344,-0.45017 1.35425,-1.25822 1.69762,-1.67322 0.65313,-0.78935 1.14038,-1.64429 1.44324,-2.53236 l 0.17385,-0.50975 -0.13952,-0.2162 c -0.17349,-0.26883 -0.45054,-0.52218 -0.62681,-0.57319 -0.41396,-0.11978 -0.84738,0.26506 -1.31381,1.16657 -0.33729,0.6519 -0.6389,1.42975 -1.22039,3.14738 -0.29627,0.87514 -0.44281,1.27561 -0.58116,1.58814 l -0.0512,0.11566 0.10207,-0.0821 c 0.0561,-0.0452 0.28838,-0.23908 0.5161,-0.4309 z m -7.68704,0.35953 c 0.83447,-0.39922 1.63036,-1.93654 1.95712,-3.78034 0.0562,-0.31704 0.0685,-0.5028 0.0699,-1.05152 0.001,-0.59794 -0.006,-0.69348 -0.0677,-0.92931 -0.17518,-0.66413 -0.51726,-0.99601 -1.02664,-0.99601 -0.24687,0 -0.41927,0.0445 -0.75061,0.19373 -0.44102,0.19863 -0.94116,0.54848 -1.50413,1.05216 l -0.21725,0.19437 -0.11021,0.47991 c -0.0606,0.26396 -0.20687,0.9929 -0.32501,1.61989 l -0.21481,1.13997 0.1108,0.28878 c 0.14723,0.38375 0.35193,0.80121 0.5265,1.07372 0.15458,0.24133 0.48068,0.58829 0.64522,0.6865 0.28029,0.1673 0.59557,0.17709 0.90689,0.0282 z"
       id="path1" /></g></svg>
